<svg width="240" height="240" xmlns="http://www.w3.org/2000/svg" xmlns:xlink="http://www.w3.org/1999/xlink" xml:space="preserve" overflow="hidden"><defs><clipPath id="clip0"><rect x="448" y="168" width="240" height="240"/></clipPath></defs><g clip-path="url(#clip0)" transform="translate(-448 -168)"><path d="M623 288C623 259.5 604 244.5 583.75 233 604 221.25 623 206.5 623 178L608 178C608 182.5 607.25 186.75 606 190.5L530 190.5C528.75 186.75 528 182.5 528 178L513 178C513 206.5 532 221.25 552.25 233 532 244.5 513 259.5 513 288 513 316.75 532 331.75 552.25 343.25 532 354.75 513 369.5 513 398L528 398C528 393.25 528.75 389.25 530 385.5L606 385.5C607.25 389.25 608 393.25 608 398L623 398C623 369.5 604 354.75 583.75 343.25 604 331.75 623 316.75 623 288ZM528 288C528 283.5 528.75 279.25 530 275.5L606.25 275.5C607.5 279.25 608.25 283.5 608.25 288 608.25 292.5 607.5 296.75 606.25 300.5L530 300.5C528.75 296.75 528 292.5 528 288ZM539.5 205.5 596.25 205.5C589 212.75 578.75 218.5 567.75 224.5 557 218.5 546.75 212.75 539.5 205.5ZM568 241.5C579 247.5 589.25 253.25 596.5 260.5L539.5 260.5C546.75 253.25 557 247.25 568 241.5ZM568 351.75C579 357.5 589 363.25 596.25 370.5L539.75 370.5C547 363.25 557 357.5 568 351.75ZM568 334.75C556.75 328.75 546.5 323 539.25 315.5L596.75 315.5C589.5 323 579.25 328.75 568 334.75Z"/></g></svg>